<?xml version="1.0" encoding="UTF-8" standalone="no"?>
<!DOCTYPE svg PUBLIC "-//W3C//DTD SVG 1.1//EN" "http://www.w3.org/Graphics/SVG/1.1/DTD/svg11.dtd">
<svg id="Layer_1" data-name="Layer 1" xmlns="http://www.w3.org/2000/svg" viewBox="0 0 128 128"><defs><style>.cls-1{fill:#144a9f;}.cls-2{fill:#e31735;}</style></defs><title>LL_icons</title><path class="cls-1" d="M120.6,108.81l-29-61.47a24.16,24.16,0,0,1-2.3-10.24V14.49a5.62,5.62,0,0,0,4.11-5.41V6.8a5.61,5.61,0,0,0-5.61-5.61H61.28A5.61,5.61,0,0,0,55.67,6.8V9.08a5.62,5.62,0,0,0,4.11,5.41V37.1a24.16,24.16,0,0,1-2.3,10.24L43.92,76.13a1.5,1.5,0,1,0,2.71,1.28L60.2,48.62A27.29,27.29,0,0,0,62.78,37.1V11.7h-1.5a2.62,2.62,0,0,1-2.61-2.62V6.8a2.61,2.61,0,0,1,2.61-2.61H87.84A2.61,2.61,0,0,1,90.45,6.8V9.08a2.62,2.62,0,0,1-2.61,2.62H78.22a1.5,1.5,0,0,0,0,3h8.12v4.17H81.25a1.5,1.5,0,0,0,0,3h5.09V26H78.22a1.5,1.5,0,0,0,0,3h8.12v4.17H81.25a1.5,1.5,0,0,0,0,3h5.09v.89a27.78,27.78,0,0,0,.21,3.28H78.22a1.5,1.5,0,0,0,0,3H87.1a27.31,27.31,0,0,0,1.82,5.24l29,61.47a10.09,10.09,0,0,1-9.14,14.41H45.32a1.5,1.5,0,1,0,0,3h63.42a13.11,13.11,0,0,0,11.86-18.69Z"/><path class="cls-1" d="M37.43,22.77H10.66a5.51,5.51,0,0,0-5.51,5.51V30.7a5.51,5.51,0,0,0,4,5.3v78.27A13.25,13.25,0,0,0,22.4,127.5h3.29a13.25,13.25,0,0,0,13.24-13.23V36a5.51,5.51,0,0,0,4-5.3V28.28A5.51,5.51,0,0,0,37.43,22.77Zm2.51,7.93a2.52,2.52,0,0,1-2.51,2.51h-1.5v81.06A10.24,10.24,0,0,1,25.69,124.5H22.4a10.24,10.24,0,0,1-10.24-10.23V64.89h8.26a1.5,1.5,0,0,0,0-3H12.16V57.72h5.23a1.5,1.5,0,0,0,0-3H12.16V50.55h8.26a1.5,1.5,0,0,0,0-3H12.16V43.38h5.23a1.5,1.5,0,0,0,0-3H12.16V36.2h8.26a1.5,1.5,0,0,0,0-3H10.66A2.52,2.52,0,0,1,8.15,30.7V28.28a2.52,2.52,0,0,1,2.51-2.51H37.43a2.52,2.52,0,0,1,2.51,2.51Z"/><path class="cls-2" d="M113.89,112,99.44,81.3c-8.4,9.57-29,19.64-54.17,22.23v16.55h63.46a5.69,5.69,0,0,0,5.15-8.11Z"/></svg>
