<svg xmlns="http://www.w3.org/2000/svg" viewBox="0 0 180 108"><defs><style>.cls-1{fill:#226fb0}.cls-2{fill:#a7c5df}.cls-3{fill:#7aa9d0}</style></defs><path class="cls-1" d="M108.52 103.3V92q0-4.34-3.93-4.34c-1.84 0-3.27.82-5 2.83V79.31h-3.77v24h3.74v-9.22l.5-.56c1.62-1.84 2.71-2.67 3.49-2.67s1.22.69 1.22 2.6v9.84zm16.15-1.48l-1.37-3a9.45 9.45 0 0 1-2.78 1.45 5.24 5.24 0 0 1-1.72.26 3.71 3.71 0 0 1-3.24-1.84 5 5 0 0 1-.5-2.44h9.61v-1.67c0-4.15-2.49-7-6.08-7-4.15 0-7.27 3.65-7.27 8.49 0 4.67 2.71 7.67 7 7.67a10.92 10.92 0 0 0 4.77-1.09c.34-.17.87-.43 1.56-.82zm-3.74-8h-5.68c.31-2.08 1.44-3.26 3.09-3.26s2.5.92 2.59 3.26zm18.07 6.72c-1-.1-1.15-.33-1.15-1.71v-6.39c0-3.36-1.56-4.87-5-4.87-3.93 0-6.17 1.55-6.17 4.25a2.58 2.58 0 0 0 .19 1.05l3.55-.82a1.21 1.21 0 0 1-.09-.4c0-.76.9-1.38 2-1.38s1.78.76 1.78 2.4V94L130 95.21c-2.12.66-3 1.38-3.49 2.8a5.14 5.14 0 0 0-.25 1.55 4 4 0 0 0 4.21 4.15 5.58 5.58 0 0 0 4.05-1.88c.66 1.35 1.25 1.68 3.12 1.68h.78l.59-3zm-4.9-1.05a5.87 5.87 0 0 1-1 .69 3.13 3.13 0 0 1-1.53.46 1.42 1.42 0 0 1-1.5-1.58 3.32 3.32 0 0 1 .28-1.28l3.71-1.28v3zm11.53 3.81V79.31h-3.72v23.99h3.72zm11.56-1.48L156 99a3.84 3.84 0 0 1-2 1c-.59 0-.75-.49-.75-2.2v-6.91h3.15V88h-3.15v-4.58h-3.53V88l-2.15.39v2.5h2.15v9.51c0 2.27.9 3.32 2.84 3.32a6.42 6.42 0 0 0 3.24-1l1.37-.89zM172 103.3V92q0-4.34-3.93-4.34c-1.84 0-3.28.82-5 2.83V79.31h-3.75v24h3.75v-9.22l.5-.56c1.62-1.84 2.71-2.67 3.49-2.67s1.21.69 1.21 2.6v9.84zM16.28 85.12a2.74 2.74 0 0 1 0-5.33 2.75 2.75 0 0 1 0 5.33zm-1.87 18.14V87.95h3.71v15.31zm17.34-11.07c-.37-.26-.72-.49-1-.66a6.5 6.5 0 0 0-3.34-1.05c-1.43 0-2.37.59-2.37 1.45 0 .69.5 1.12 1.81 1.61a21.59 21.59 0 0 1 4.37 2.11 4.34 4.34 0 0 1 1.5 3.35c0 2.8-2.31 4.64-5.8 4.64a10.77 10.77 0 0 1-2.37-.3A11.53 11.53 0 0 1 21 102l1.18-3.19a11.88 11.88 0 0 0 3.12 1.61 4.84 4.84 0 0 0 1.62.3c1.43 0 2.28-.49 2.28-1.31s-.47-1.22-1.47-1.61l-2.5-1c-2.56-1-3.74-2.47-3.74-4.51 0-2.86 2.37-4.8 5.9-4.8a11.45 11.45 0 0 1 2.4.3A8.22 8.22 0 0 1 32.94 89zm4.18 11.06v-24h3.71v24zm18.84.2H54c-1.87 0-2.46-.33-3.12-1.68a5.59 5.59 0 0 1-4.06 1.88 4 4 0 0 1-4.21-4.15 5.16 5.16 0 0 1 .25-1.5c.5-1.42 1.37-2.14 3.49-2.8l4.12-1.25v-1.33c0-1.65-.56-2.4-1.78-2.4s-2 .62-2 1.38a1.17 1.17 0 0 0 .09.39l-3.56.82a2.59 2.59 0 0 1-.22-1.05c0-2.7 2.25-4.25 6.18-4.25 3.46 0 5 1.51 5 4.87v6.38c0 1.38.16 1.61 1.15 1.71zm-4.3-7l-3.71 1.29a3.32 3.32 0 0 0-.29 1.26 1.42 1.42 0 0 0 1.5 1.58 3.13 3.13 0 0 0 1.53-.46 5.8 5.8 0 0 0 1-.69zm17.06 6.8v-9.84c0-1.91-.31-2.6-1.22-2.6s-1.87.82-3.49 2.67l-.5.56v9.22h-3.74V87.95h3.74v2.54c1.75-2 3.18-2.83 5-2.83q3.93 0 3.93 4.34v11.26zm16.72 0v-2.08a4.09 4.09 0 0 1-1.47 1.65 4.84 4.84 0 0 1-2.71.86c-3.43 0-6-3.23-6-7.64 0-4.74 3.09-8.56 6.92-8.56a4.39 4.39 0 0 1 1.28.16 4.14 4.14 0 0 1 1.93.92v-9.3H88v24zm0-9.15a8.8 8.8 0 0 0-.19-2 2.47 2.47 0 0 0-2.43-1.42c-2.06 0-3.59 2.14-3.59 5s1.22 4.71 3 4.71c1.15 0 2.31-.82 3.21-2.3z"/><path class="cls-2" d="M87.6 1.96l45.52 46.19H41.41L87.6 1.96z"/><path class="cls-3" d="M122.39 10.88l40.88 41.47H80.92l41.47-41.47z"/><path class="cls-1" d="M52.71 14.21l37.62 38.16H14.55l38.16-38.16z"/><path class="cls-2" d="M3.47 57c18.86-8.54 32.73-12.81 48.39-12.81 17.94 0 29.53 4.63 44.83 10.32 13.72 4.63 22.16 6 36.65 6 17 0 27-1.9 42.69-8.18-15.51 13.81-28.33 20.64-49.1 20.64-14.94 0-27.14-.92-42.16-8.36-13.52-5-20.46-9.78-35.75-10.85C32 52.66 21.26 55.27 3.47 57z"/></svg>